# xmcd
#
# Track frame offsets:
# 150
# 24866
# 41507
# 51974
# 65782
# 94989
# 136300
# 178494
# 211498
# 233319
#
# Disc length: 3469 seconds
#
#
# Revision: 0
# Processed by: cddbd v1.5.1PL2 Copyright (c) Steve Scherf et al.
# Submitted via: FreeRIP 2.944 
#
DISCID=8b0d8b0a
DTITLE=Taint - the Ruin of Nova Roma
DYEAR=2005
DGENRE=Noise
TTITLE0=the Sound-out Competition
TTITLE1=Zealots And Whores
TTITLE2=He Got Cop Eyes
TTITLE3=Drunken Marksman
TTITLE4=the Idol-the Memory
TTITLE5=the Ruin of Nova Roma
TTITLE6=Amaranthine
TTITLE7=I'm Going To Kill Henry Ford
TTITLE8=Poison Pen Attack
TTITLE9=Cours Et Conquistadors
EXTD=
EXTT0=
EXTT1=
EXTT2=
EXTT3=
EXTT4=
EXTT5=
EXTT6=
EXTT7=
EXTT8=
EXTT9=
PLAYORDER=
